<svg xmlns="http://www.w3.org/2000/svg" width="111.813" height="18.75" viewBox="0 0 111.813 18.75">
  <defs>
    <style>
      .cls-1 {
        fill: #fff;
        fill-rule: evenodd;
      }
    </style>
  </defs>
  <path id="Bouncy.svg" class="cls-1" d="M102.823,417.951V414.7h3.3a1.654,1.654,0,0,1,1.624,1.625,1.622,1.622,0,0,1-1.624,1.625h-3.3Zm0-7.374v-3.249H105.2a1.625,1.625,0,0,1,0,3.249h-2.375ZM107.147,422a5.47,5.47,0,0,0,3.374-9.8,5.491,5.491,0,0,0,1.2-3.374,5.656,5.656,0,0,0-5.548-5.574H97.9V422h9.248Zm8.077-9.348a9.361,9.361,0,1,0,9.348-9.4A9.334,9.334,0,0,0,115.224,412.652Zm13.822-.025a4.462,4.462,0,1,1-4.474-4.474A4.485,4.485,0,0,1,129.046,412.627Zm12.752-9.373h-4.949V414.6a7.4,7.4,0,1,0,14.8,0V403.254H146.7v11.273a2.45,2.45,0,0,1-4.9,0V403.254ZM171.2,422V403.254h-4.924V412.1l-8.872-8.848h-2V422h4.924v-8.873L169.171,422H171.2Zm18.05-16.021a9.27,9.27,0,0,0-6.6-2.725,9.373,9.373,0,1,0,6.648,15.971l-3.5-3.449a4.422,4.422,0,1,1-3.149-7.548,4.375,4.375,0,0,1,3.149,1.225Zm20.475-2.725h-5.673l-3.625,6.249-3.6-6.249H191.15L198,415.1V422h4.874v-6.9Z" transform="translate(-97.906 -403.25)"/>
</svg>
